<svg width="40" height="40" viewBox="0 0 40 40" fill="none" xmlns="http://www.w3.org/2000/svg">
<rect width="40" height="40" rx="1.6" fill="black"/>
<path d="M8 12H24V25.44C24 26.3361 24 26.7841 23.8256 27.1264C23.6722 27.4274 23.4274 27.6722 23.1264 27.8256C22.7841 28 22.3361 28 21.44 28H10.56C9.66392 28 9.21587 28 8.87362 27.8256C8.57256 27.6722 8.32779 27.4274 8.17439 27.1264C8 26.7841 8 26.3361 8 25.44V12Z" fill="white"/>
<path d="M22.8 12.8H29.44C29.9012 12.8 30.1991 12.8006 30.4257 12.8191C30.6431 12.8369 30.7236 12.867 30.7632 12.8872L31.1264 12.1744L30.7632 12.8872C30.9137 12.9639 31.0361 13.0863 31.1128 13.2368C31.133 13.2764 31.1631 13.3569 31.1809 13.5743C31.1994 13.8009 31.2 14.0988 31.2 14.56V19.44C31.2 19.9012 31.1994 20.1991 31.1809 20.4257C31.1631 20.6431 31.133 20.7236 31.1128 20.7632C31.0361 20.9137 30.9137 21.0361 30.7632 21.1128C30.7236 21.133 30.6431 21.1631 30.4257 21.1809C30.1991 21.1994 29.9012 21.2 29.44 21.2H22.8V12.8Z" stroke="white" stroke-width="1.6"/>
</svg>
