<svg width="24" height="16" viewBox="0 0 24 16" fill="none" xmlns="http://www.w3.org/2000/svg">
<path d="M0 0H16V13.44C16 14.3361 16 14.7841 15.8256 15.1264C15.6722 15.4274 15.4274 15.6722 15.1264 15.8256C14.7841 16 14.3361 16 13.44 16H2.56C1.66392 16 1.21587 16 0.873615 15.8256C0.572556 15.6722 0.327787 15.4274 0.17439 15.1264C0 14.7841 0 14.3361 0 13.44V0Z" fill="white"/>
<path d="M14.8 0.8H21.44C21.9012 0.8 22.1991 0.800622 22.4257 0.819142C22.6431 0.836898 22.7236 0.867041 22.7632 0.887195C22.9137 0.963893 23.0361 1.08628 23.1128 1.23681C23.133 1.27636 23.1631 1.35694 23.1809 1.57427C23.1994 1.80094 23.2 2.09876 23.2 2.56V7.44C23.2 7.90124 23.1994 8.19906 23.1809 8.42573C23.1631 8.64306 23.133 8.72364 23.1128 8.76319C23.0361 8.91372 22.9137 9.03611 22.7632 9.11281C22.7236 9.13296 22.6431 9.1631 22.4257 9.18086C22.1991 9.19938 21.9012 9.2 21.44 9.2H14.8V0.8Z" stroke="white" stroke-width="1.6"/>
</svg>
